<svg xmlns="http://www.w3.org/2000/svg" viewBox="0 0 100 100" width="100" height="100" aria-hidden="true"><path d="M50,50 L50.4,50.06 L50.78,50.25 L51.1,50.55 L51.33,50.95 L51.47,51.43 L51.48,51.96 L51.35,52.53 L51.08,53.09 L50.67,53.62 L50.12,54.09 L49.44,54.46 L48.64,54.72 L47.76,54.82 L46.82,54.76 L45.85,54.52 L44.89,54.09 L43.96,53.45 L43.12,52.63 L42.4,51.63 L41.83,50.47 L41.45,49.17 L41.28,47.76 L41.35,46.29 L41.68,44.79 L42.27,43.3 L43.13,41.88 L44.24,40.57 L45.6,39.42 L47.18,38.48 L48.95,37.77 L50.87,37.35 L52.89,37.23 L54.97,37.45 L57.05,38.01 L59.06,38.92 L60.96,40.17 L62.69,41.74 L64.18,43.62 L65.38,45.77 L66.26,48.13 L66.76,50.67 L66.86,53.32 L66.53,56.01 L65.77,58.67 L64.58,61.24 L62.96,63.64 L60.94,65.81 L58.56,67.67 L55.87,69.17 L52.91,70.25 L49.76,70.86 L46.49,70.98 L43.18,70.58 L39.91,69.65 L36.77,68.2 L33.85,66.25 L31.21,63.81 L28.95,60.95 L27.13,57.72 L25.81,54.19 L25.05,50.43 L24.87,46.53 L25.31,42.6 L26.37,38.72 L28.05,34.99 L30.32,31.52 L33.14,28.39 L36.46,25.7 L40.21,23.52 L44.31,21.93 L48.67,20.98 L53.19,20.72 L57.76,21.16 L62.26,22.32 L66.59,24.19 L70.63,26.74 L74.27,29.92 L77.42,33.68 L79.98,37.93 L81.88,42.59 L83.05,47.54 L83.44,52.68 L83.03,57.88 L81.8,63.01 L79.78,67.96 L76.98,72.58 L73.46,76.76 L69.29,80.4 L64.56,83.37 L59.36,85.61 L53.82,87.03 L48.07,87.59 L42.23,87.24 L36.46,85.99 L30.89,83.84 L25.66,80.82 L20.92,77 L16.78,72.44 L13.35,67.24 L10.75,61.53 L9.04,55.41 L8.28,49.05 L8.52,42.58 L9.77,36.16 L12.01,29.95 L15.21,24.11 L19.31,18.78 L24.24,14.11 L29.87,10.21 L36.09,7.2" stroke="#ff2f7a" stroke-width="11" fill="none" stroke-linecap="round"></path><g stroke="#ff2f7a" stroke-width="9" stroke-linecap="round"><path d="M50,4 V16"></path><path d="M96,50 H84"></path><path d="M50,96 V84"></path></g></svg>