<svg xmlns="http://www.w3.org/2000/svg" viewBox="0 0 300 200" role="img" aria-label="The gust turns in on itself and becomes a whirlwind">
  <g transform="rotate(-3 150 100)">
  <g style="fill:none;stroke:var(--gm-green-deep, #072e26);stroke-linecap:round;stroke-linejoin:round">
    <path d="M221.3,61.4 223.2,60.5 224.8,59.6 226.1,58.6 227.2,57.7 228.1,56.7 228.7,55.8 229.0,54.9 229.1,53.9 228.9,53.0 228.5,52.1 227.8,51.2 226.9,50.3 225.7,49.4 224.3,48.6 222.6,47.8 220.8,47.0 218.7,46.2 216.4,45.5 213.8,44.9 211.1,44.2 208.2,43.7 205.2,43.1 201.9,42.7 198.5,42.2 195.0,41.9 191.3,41.6 187.6,41.3 183.7,41.1 179.7,41.0 175.6,40.9 171.5,40.9 167.4,41.0 163.2,41.1 158.9,41.3 154.7,41.5 150.5,41.9 146.3,42.2 142.1,42.7 137.9,43.2 133.9,43.8 129.9,44.4 125.9,45.1 122.1,45.8 118.4,46.6 114.8,47.5 111.4,48.4 108.0,49.3 104.9,50.3 101.9,51.4 99.0,52.5 96.4,53.6 93.9,54.8 91.6,56.0 89.5,57.2 87.7,58.5 86.0,59.8 84.6,61.1 83.3,62.4 82.3,63.8 81.5,65.1 81.0,66.5 80.7,67.9 80.5,69.2 80.7,70.6 81.0,72.0 81.5,73.3 82.3,74.7 83.3,76.0 84.5,77.3 85.9,78.6 87.5,79.8 89.3,81.1 91.2,82.3 93.4,83.5 95.7,84.6 98.2,85.7 100.8,86.8 103.6,87.8 106.5,88.8 109.5,89.7 112.6,90.6 115.9,91.5 119.2,92.3 122.6,93.0 126.1,93.7 129.6,94.3 133.1,94.9 136.7,95.5 140.4,96.0 144.0,96.4 147.6,96.8 151.2,97.1 154.8,97.4 158.3,97.6 161.8,97.8 165.2,97.9 168.6,97.9 171.8,98.0 175.0,98.0 178.1,97.9 181.0,97.8 183.9,97.6 186.6,97.5 189.1,97.2 191.6,97.0 193.8,96.7 195.9,96.4 197.9,96.0 199.7,95.7 201.3,95.3 202.7,94.9 204.0,94.5 205.1,94.0 205.9,93.6 206.6,93.1 207.2,92.7 207.5,92.2 207.6,91.7 207.6,91.3 207.3,90.8 206.9,90.4 206.3,90.0 205.5,89.5 204.6,89.1 203.5,88.8 202.2,88.4 200.7,88.1 199.2,87.7 197.4,87.5 195.5,87.2 193.5,87.0 191.4,86.8 189.2,86.7 186.8,86.5 184.4,86.5 181.8,86.4 179.2,86.4 176.5,86.5 173.8,86.6 171.0,86.7 168.1,86.9 165.2,87.1 162.3,87.4 159.4,87.7 156.5,88.0 153.5,88.4 150.6,88.8 147.8,89.3 144.9,89.9 142.1,90.4 139.4,91.0 136.7,91.7 134.1,92.4 131.5,93.1 129.0,93.8 126.7,94.6 124.4,95.5 122.2,96.3 120.2,97.2 118.2,98.1 116.4,99.1 114.7,100.0 113.2,101.0 111.8,102.0 110.5,103.1 109.3,104.1 108.3,105.2 107.5,106.2 106.8,107.3 106.2,108.4 105.8,109.5 105.5,110.5 105.4,111.6 105.4,112.7 105.6,113.8 105.9,114.9 106.4,115.9 107.0,117.0 107.7,118.0 108.6,119.1 109.5,120.1 110.6,121.1 111.8,122.0 113.2,123.0 114.6,123.9 116.1,124.8 117.7,125.7 119.4,126.5 121.2,127.4 123.1,128.1 125.0,128.9 127.0,129.6 129.0,130.3 131.1,131.0 133.2,131.6 135.3,132.3 137.5,132.8 139.7,133.4 141.8,133.9 144.0,134.3 146.2,134.8 148.3,135.2 150.5,135.6 152.6,135.9 154.6,136.2 156.6,136.5 158.6,136.8 160.5,137.0 162.4,137.2 164.2,137.4 165.9,137.6 167.5,137.7 169.1,137.8 170.5,137.9 171.9,138.0 173.2,138.1 174.4,138.1 175.5,138.1 176.5,138.2 177.4,138.2 178.2,138.2 178.9,138.2 179.5,138.1 179.9,138.1 180.3,138.1 180.6,138.1 180.7,138.1 180.8,138.1 180.7,138.0 180.5,138.0 180.3,138.0 179.9,138.0 179.5,138.1 179.0,138.1 178.4,138.1 177.6,138.2 176.9,138.3 176.0,138.4 175.1,138.5 174.1,138.6 173.0,138.7 171.9,138.9 170.7,139.1 169.5,139.3 168.3,139.5 167.0,139.7 165.6,140.0 164.3,140.3 162.9,140.6 161.5,140.9 160.1,141.3 158.7,141.7 157.3,142.1 155.9,142.5 154.5,143.0 153.1,143.4 151.8,143.9 150.4,144.4 149.1,144.9 147.9,145.5 146.6,146.1 145.4,146.7 144.3,147.3 143.2,147.9 142.1,148.5 141.1,149.2 140.2,149.8 139.3,150.5 138.5,151.2 137.7,151.9 137.0,152.6 136.4,153.3 135.8,154.0 135.3,154.7 134.8,155.4 134.5,156.2 134.2,156.9 133.9,157.6 133.7,158.4 133.6,159.1 133.6,159.8 133.6,160.5 133.7,161.3 133.8,162.0 134.0,162.7 134.2,163.4 134.5,164.1 134.8,164.8 135.2,165.5 135.6,166.1 136.1,166.8 136.6,167.4 137.1,168.1 137.7,168.7 138.3,169.3 138.9,169.9 139.5,170.5 140.2,171.1 140.8,171.7 141.5,172.2" stroke-width="17"/>
    <path d="M64.5,30.9 62.6,32.2 61.0,33.6 59.5,35.0 58.3,36.5 57.3,37.9 56.4,39.4 55.8,40.9 55.4,42.4 55.2,44.0 55.2,45.5 55.4,47.0 55.8,48.5 56.4,50.1 57.2,51.6 58.2,53.1 59.4,54.6 60.8,56.0 62.3,57.5 64.1,58.9 66.0,60.3 68.1,61.7 70.4,63.0 72.8,64.3 75.4,65.6 78.2,66.8 81.0,68.0 84.1,69.2 87.2,70.3 90.5,71.4 93.9,72.4 97.4,73.4 101.0,74.3 104.6,75.2 108.4,76.0 112.2,76.8 116.2,77.5 120.1,78.2 124.1,78.8 128.2,79.3 132.3,79.8 136.4,80.3 140.5,80.7 144.6,81.0 148.7,81.3 152.8,81.5 156.9,81.7 160.9,81.8 164.9,81.8 168.8,81.9 172.7,81.8 176.6,81.7 180.3,81.6 184.0,81.4 187.6,81.1 191.0,80.8 194.4,80.5 197.7,80.1 200.8,79.7 203.9,79.2 206.8,78.7 209.5,78.1 212.2,77.6 214.6,77.0 217.0,76.3 219.1,75.7 221.2,75.0 223.0,74.2 224.7,73.5 226.2,72.8 227.6,72.0 228.8,71.2 229.8,70.4 230.6,69.6 231.2,68.8 231.7,68.0 232.0,67.1 232.1,66.3 232.1,65.5 231.9,64.7 231.5,63.9 230.9,63.1 230.1,62.3 229.2,61.6 228.1,60.8 226.9,60.1 225.5,59.4 224.0,58.7 222.3,58.1 220.4,57.4 218.4,56.9 216.3,56.3 214.1,55.8 211.7,55.3 209.2,54.8 206.6,54.4 203.9,54.0 201.1,53.7 198.1,53.4 195.2,53.1 192.1,52.9 188.9,52.8 185.7,52.6 182.5,52.6 179.2,52.6 175.8,52.6 172.4,52.7 169.0,52.8 165.5,53.0 162.1,53.2 158.6,53.4 155.2,53.8 151.7,54.1 148.3,54.6 144.9,55.0 141.5,55.5 138.2,56.1 134.9,56.7 131.7,57.4 128.5,58.0 125.4,58.8 122.3,59.6 119.4,60.4 116.5,61.2 113.7,62.1 111.0,63.1 108.5,64.0 106.0,65.1 103.6,66.1 101.4,67.2 99.2,68.3 97.2,69.4 95.3,70.5 93.6,71.7 92.0,72.9 90.5,74.1 89.1,75.3 87.9,76.6 86.9,77.8 85.9,79.1 85.2,80.4 84.5,81.7 84.0,83.0 83.7,84.2 83.5,85.5 83.4,86.8 83.5,88.1 83.8,89.4 84.1,90.7 84.6,92.0 85.3,93.2 86.1,94.5 87.0,95.7 88.0,96.9 89.2,98.1 90.5,99.3 91.9,100.4 93.4,101.6 95.0,102.7 96.7,103.8 98.6,104.8 100.5,105.8 102.5,106.8 104.6,107.8 106.8,108.7 109.1,109.6 111.4,110.5 113.8,111.3 116.3,112.1 118.8,112.9 121.4,113.6 124.0,114.3 126.6,115.0 129.3,115.6 131.9,116.2 134.6,116.7 137.4,117.2 140.1,117.7 142.8,118.1 145.5,118.5 148.2,118.8 150.8,119.2 153.5,119.4 156.1,119.7 158.7,119.9 161.2,120.0 163.7,120.2 166.2,120.3 168.5,120.4 170.9,120.4 173.1,120.4 175.3,120.4 177.4,120.4 179.4,120.3 181.4,120.2 183.3,120.1 185.0,119.9 186.7,119.8 188.3,119.6 189.8,119.4 191.2,119.2 192.4,118.9 193.6,118.7 194.7,118.4 195.7,118.1 196.5,117.9 197.3,117.6 197.9,117.3 198.4,117.0 198.9,116.7 199.2,116.4 199.4,116.1 199.4,115.8 199.4,115.5 199.3,115.2 199.1,114.9 198.7,114.6 198.3,114.4 197.7,114.1 197.1,113.9 196.4,113.6 195.5,113.4 194.6,113.2 193.6,113.0 192.5,112.9 191.4,112.7 190.1,112.6 188.8,112.5 187.4,112.4 186.0,112.4 184.5,112.3 182.9,112.3 181.3,112.3 179.6,112.4 177.9,112.4 176.1,112.5 174.3,112.7 172.5,112.8 170.6,113.0 168.8,113.2 166.9,113.4 164.9,113.7 163.0,114.0 161.1,114.3 159.2,114.6 157.3,115.0 155.4,115.4 153.5,115.8 151.6,116.3 149.7,116.8 147.9,117.3 146.1,117.8 144.4,118.3 142.6,118.9 140.9,119.5 139.3,120.2 137.7,120.8 136.1,121.5 134.6,122.2 133.2,122.9 131.8,123.6 130.5,124.3 129.2,125.1 128.0,125.9 126.9,126.7 125.8,127.5 124.9,128.3 123.9,129.1 123.1,129.9 122.3,130.8 121.6,131.6 121.0,132.5 120.4,133.3 120.0,134.2 119.6,135.1 119.2,135.9 119.0,136.8 118.8,137.7 118.7,138.6 118.7,139.4 118.7,140.3 118.8,141.2 119.0,142.0 119.3,142.9 119.6,143.7 120.0,144.5 120.4,145.3 120.9,146.2 121.4,147.0 122.1,147.8 122.7,148.5 123.4,149.3 124.2,150.0 125.0,150.8 125.8,151.5 126.7,152.2 127.6,152.9 128.6,153.6 129.6,154.2 130.6,154.9 131.6,155.5" stroke-width="14"/>
    <path d="M12,52 C58,30 96,46 140,34" stroke-width="12"/>
    <path d="M158,30 C202,18 244,34 292,26" stroke-width="9"/>
    <path d="M40,88 C74,78 92,86 118,76" stroke-width="8"/>
  </g>
  <g style="fill:none;stroke:var(--gm-pink, #ff5f8f);stroke-linecap:round;stroke-linejoin:round">
    <path d="M221.3,61.4 223.2,60.5 224.8,59.6 226.1,58.6 227.2,57.7 228.1,56.7 228.7,55.8 229.0,54.9 229.1,53.9 228.9,53.0 228.5,52.1 227.8,51.2 226.9,50.3 225.7,49.4 224.3,48.6 222.6,47.8 220.8,47.0 218.7,46.2 216.4,45.5 213.8,44.9 211.1,44.2 208.2,43.7 205.2,43.1 201.9,42.7 198.5,42.2 195.0,41.9 191.3,41.6 187.6,41.3 183.7,41.1 179.7,41.0 175.6,40.9 171.5,40.9 167.4,41.0 163.2,41.1 158.9,41.3 154.7,41.5 150.5,41.9 146.3,42.2 142.1,42.7 137.9,43.2 133.9,43.8 129.9,44.4 125.9,45.1 122.1,45.8 118.4,46.6 114.8,47.5 111.4,48.4 108.0,49.3 104.9,50.3 101.9,51.4 99.0,52.5 96.4,53.6 93.9,54.8 91.6,56.0 89.5,57.2 87.7,58.5 86.0,59.8 84.6,61.1 83.3,62.4 82.3,63.8 81.5,65.1 81.0,66.5 80.7,67.9 80.5,69.2 80.7,70.6 81.0,72.0 81.5,73.3 82.3,74.7 83.3,76.0 84.5,77.3 85.9,78.6 87.5,79.8 89.3,81.1 91.2,82.3 93.4,83.5 95.7,84.6 98.2,85.7 100.8,86.8 103.6,87.8 106.5,88.8 109.5,89.7 112.6,90.6 115.9,91.5 119.2,92.3 122.6,93.0 126.1,93.7 129.6,94.3 133.1,94.9 136.7,95.5 140.4,96.0 144.0,96.4 147.6,96.8 151.2,97.1 154.8,97.4 158.3,97.6 161.8,97.8 165.2,97.9 168.6,97.9 171.8,98.0 175.0,98.0 178.1,97.9 181.0,97.8 183.9,97.6 186.6,97.5 189.1,97.2 191.6,97.0 193.8,96.7 195.9,96.4 197.9,96.0 199.7,95.7 201.3,95.3 202.7,94.9 204.0,94.5 205.1,94.0 205.9,93.6 206.6,93.1 207.2,92.7 207.5,92.2 207.6,91.7 207.6,91.3 207.3,90.8 206.9,90.4 206.3,90.0 205.5,89.5 204.6,89.1 203.5,88.8 202.2,88.4 200.7,88.1 199.2,87.7 197.4,87.5 195.5,87.2 193.5,87.0 191.4,86.8 189.2,86.7 186.8,86.5 184.4,86.5 181.8,86.4 179.2,86.4 176.5,86.5 173.8,86.6 171.0,86.7 168.1,86.9 165.2,87.1 162.3,87.4 159.4,87.7 156.5,88.0 153.5,88.4 150.6,88.8 147.8,89.3 144.9,89.9 142.1,90.4 139.4,91.0 136.7,91.7 134.1,92.4 131.5,93.1 129.0,93.8 126.7,94.6 124.4,95.5 122.2,96.3 120.2,97.2 118.2,98.1 116.4,99.1 114.7,100.0 113.2,101.0 111.8,102.0 110.5,103.1 109.3,104.1 108.3,105.2 107.5,106.2 106.8,107.3 106.2,108.4 105.8,109.5 105.5,110.5 105.4,111.6 105.4,112.7 105.6,113.8 105.9,114.9 106.4,115.9 107.0,117.0 107.7,118.0 108.6,119.1 109.5,120.1 110.6,121.1 111.8,122.0 113.2,123.0 114.6,123.9 116.1,124.8 117.7,125.7 119.4,126.5 121.2,127.4 123.1,128.1 125.0,128.9 127.0,129.6 129.0,130.3 131.1,131.0 133.2,131.6 135.3,132.3 137.5,132.8 139.7,133.4 141.8,133.9 144.0,134.3 146.2,134.8 148.3,135.2 150.5,135.6 152.6,135.9 154.6,136.2 156.6,136.5 158.6,136.8 160.5,137.0 162.4,137.2 164.2,137.4 165.9,137.6 167.5,137.7 169.1,137.8 170.5,137.9 171.9,138.0 173.2,138.1 174.4,138.1 175.5,138.1 176.5,138.2 177.4,138.2 178.2,138.2 178.9,138.2 179.5,138.1 179.9,138.1 180.3,138.1 180.6,138.1 180.7,138.1 180.8,138.1 180.7,138.0 180.5,138.0 180.3,138.0 179.9,138.0 179.5,138.1 179.0,138.1 178.4,138.1 177.6,138.2 176.9,138.3 176.0,138.4 175.1,138.5 174.1,138.6 173.0,138.7 171.9,138.9 170.7,139.1 169.5,139.3 168.3,139.5 167.0,139.7 165.6,140.0 164.3,140.3 162.9,140.6 161.5,140.9 160.1,141.3 158.7,141.7 157.3,142.1 155.9,142.5 154.5,143.0 153.1,143.4 151.8,143.9 150.4,144.4 149.1,144.9 147.9,145.5 146.6,146.1 145.4,146.7 144.3,147.3 143.2,147.9 142.1,148.5 141.1,149.2 140.2,149.8 139.3,150.5 138.5,151.2 137.7,151.9 137.0,152.6 136.4,153.3 135.8,154.0 135.3,154.7 134.8,155.4 134.5,156.2 134.2,156.9 133.9,157.6 133.7,158.4 133.6,159.1 133.6,159.8 133.6,160.5 133.7,161.3 133.8,162.0 134.0,162.7 134.2,163.4 134.5,164.1 134.8,164.8 135.2,165.5 135.6,166.1 136.1,166.8 136.6,167.4 137.1,168.1 137.7,168.7 138.3,169.3 138.9,169.9 139.5,170.5 140.2,171.1 140.8,171.7 141.5,172.2" stroke-width="9"/>
    <path d="M64.5,30.9 62.6,32.2 61.0,33.6 59.5,35.0 58.3,36.5 57.3,37.9 56.4,39.4 55.8,40.9 55.4,42.4 55.2,44.0 55.2,45.5 55.4,47.0 55.8,48.5 56.4,50.1 57.2,51.6 58.2,53.1 59.4,54.6 60.8,56.0 62.3,57.5 64.1,58.9 66.0,60.3 68.1,61.7 70.4,63.0 72.8,64.3 75.4,65.6 78.2,66.8 81.0,68.0 84.1,69.2 87.2,70.3 90.5,71.4 93.9,72.4 97.4,73.4 101.0,74.3 104.6,75.2 108.4,76.0 112.2,76.8 116.2,77.5 120.1,78.2 124.1,78.8 128.2,79.3 132.3,79.8 136.4,80.3 140.5,80.7 144.6,81.0 148.7,81.3 152.8,81.5 156.9,81.7 160.9,81.8 164.9,81.8 168.8,81.9 172.7,81.8 176.6,81.7 180.3,81.6 184.0,81.4 187.6,81.1 191.0,80.8 194.4,80.5 197.7,80.1 200.8,79.7 203.9,79.2 206.8,78.7 209.5,78.1 212.2,77.6 214.6,77.0 217.0,76.3 219.1,75.7 221.2,75.0 223.0,74.2 224.7,73.5 226.2,72.8 227.6,72.0 228.8,71.2 229.8,70.4 230.6,69.6 231.2,68.8 231.7,68.0 232.0,67.1 232.1,66.3 232.1,65.5 231.9,64.7 231.5,63.9 230.9,63.1 230.1,62.3 229.2,61.6 228.1,60.8 226.9,60.1 225.5,59.4 224.0,58.7 222.3,58.1 220.4,57.4 218.4,56.9 216.3,56.3 214.1,55.8 211.7,55.3 209.2,54.8 206.6,54.4 203.9,54.0 201.1,53.7 198.1,53.4 195.2,53.1 192.1,52.9 188.9,52.8 185.7,52.6 182.5,52.6 179.2,52.6 175.8,52.6 172.4,52.7 169.0,52.8 165.5,53.0 162.1,53.2 158.6,53.4 155.2,53.8 151.7,54.1 148.3,54.6 144.9,55.0 141.5,55.5 138.2,56.1 134.9,56.7 131.7,57.4 128.5,58.0 125.4,58.8 122.3,59.6 119.4,60.4 116.5,61.2 113.7,62.1 111.0,63.1 108.5,64.0 106.0,65.1 103.6,66.1 101.4,67.2 99.2,68.3 97.2,69.4 95.3,70.5 93.6,71.7 92.0,72.9 90.5,74.1 89.1,75.3 87.9,76.6 86.9,77.8 85.9,79.1 85.2,80.4 84.5,81.7 84.0,83.0 83.7,84.2 83.5,85.5 83.4,86.8 83.5,88.1 83.8,89.4 84.1,90.7 84.6,92.0 85.3,93.2 86.1,94.5 87.0,95.7 88.0,96.9 89.2,98.1 90.5,99.3 91.9,100.4 93.4,101.6 95.0,102.7 96.7,103.8 98.6,104.8 100.5,105.8 102.5,106.8 104.6,107.8 106.8,108.7 109.1,109.6 111.4,110.5 113.8,111.3 116.3,112.1 118.8,112.9 121.4,113.6 124.0,114.3 126.6,115.0 129.3,115.6 131.9,116.2 134.6,116.7 137.4,117.2 140.1,117.7 142.8,118.1 145.5,118.5 148.2,118.8 150.8,119.2 153.5,119.4 156.1,119.7 158.7,119.9 161.2,120.0 163.7,120.2 166.2,120.3 168.5,120.4 170.9,120.4 173.1,120.4 175.3,120.4 177.4,120.4 179.4,120.3 181.4,120.2 183.3,120.1 185.0,119.9 186.7,119.8 188.3,119.6 189.8,119.4 191.2,119.2 192.4,118.9 193.6,118.7 194.7,118.4 195.7,118.1 196.5,117.9 197.3,117.6 197.9,117.3 198.4,117.0 198.9,116.7 199.2,116.4 199.4,116.1 199.4,115.8 199.4,115.5 199.3,115.2 199.1,114.9 198.7,114.6 198.3,114.4 197.7,114.1 197.1,113.9 196.4,113.6 195.5,113.4 194.6,113.2 193.6,113.0 192.5,112.9 191.4,112.7 190.1,112.6 188.8,112.5 187.4,112.4 186.0,112.4 184.5,112.3 182.9,112.3 181.3,112.3 179.6,112.4 177.9,112.4 176.1,112.5 174.3,112.7 172.5,112.8 170.6,113.0 168.8,113.2 166.9,113.4 164.9,113.7 163.0,114.0 161.1,114.3 159.2,114.6 157.3,115.0 155.4,115.4 153.5,115.8 151.6,116.3 149.7,116.8 147.9,117.3 146.1,117.8 144.4,118.3 142.6,118.9 140.9,119.5 139.3,120.2 137.7,120.8 136.1,121.5 134.6,122.2 133.2,122.9 131.8,123.6 130.5,124.3 129.2,125.1 128.0,125.9 126.9,126.7 125.8,127.5 124.9,128.3 123.9,129.1 123.1,129.9 122.3,130.8 121.6,131.6 121.0,132.5 120.4,133.3 120.0,134.2 119.6,135.1 119.2,135.9 119.0,136.8 118.8,137.7 118.7,138.6 118.7,139.4 118.7,140.3 118.8,141.2 119.0,142.0 119.3,142.9 119.6,143.7 120.0,144.5 120.4,145.3 120.9,146.2 121.4,147.0 122.1,147.8 122.7,148.5 123.4,149.3 124.2,150.0 125.0,150.8 125.8,151.5 126.7,152.2 127.6,152.9 128.6,153.6 129.6,154.2 130.6,154.9 131.6,155.5" stroke-width="7"/>
    <path d="M12,52 C58,30 96,46 140,34" stroke-width="6.5"/>
    <path d="M158,30 C202,18 244,34 292,26" stroke-width="5"/>
    <path d="M40,88 C74,78 92,86 118,76" stroke-width="4.5"/>
  </g>
  <g style="fill:var(--gm-green-deep, #072e26)">
    <path d="M252,31.049999999999997 C255.108,40.892 255.108,40.892 264.95,44 C255.108,47.108 255.108,47.108 252,56.95 C248.892,47.108 248.892,47.108 239.05,44 C248.892,40.892 248.892,40.892 252,31.049999999999997 Z"/>
    <path d="M48,59.975 C50.886,69.114 50.886,69.114 60.025,72 C50.886,74.886 50.886,74.886 48,84.025 C45.114,74.886 45.114,74.886 35.975,72 C45.114,69.114 45.114,69.114 48,59.975 Z"/>
    <path d="M276,117.825 C278.442,125.55799999999999 278.442,125.55799999999999 286.175,128 C278.442,130.442 278.442,130.442 276,138.175 C273.558,130.442 273.558,130.442 265.825,128 C273.558,125.55799999999999 273.558,125.55799999999999 276,117.825 Z"/>
    <path d="M112,6.75 C114.22,13.780000000000001 114.22,13.780000000000001 121.25,16 C114.22,18.22 114.22,18.22 112,25.25 C109.78,18.22 109.78,18.22 102.75,16 C109.78,13.780000000000001 109.78,13.780000000000001 112,6.75 Z"/>
    <path d="M196,170.9 C198.664,179.336 198.664,179.336 207.1,182 C198.664,184.664 198.664,184.664 196,193.1 C193.336,184.664 193.336,184.664 184.9,182 C193.336,179.336 193.336,179.336 196,170.9 Z"/>
    <path d="M30,134.6 C31.776,140.224 31.776,140.224 37.4,142 C31.776,143.776 31.776,143.776 30,149.4 C28.224,143.776 28.224,143.776 22.6,142 C28.224,140.224 28.224,140.224 30,134.6 Z"/>
  </g>
  <g style="fill:var(--gm-pink, #ff5f8f)">
    <path d="M252,37 C253.68,42.32 253.68,42.32 259,44 C253.68,45.68 253.68,45.68 252,51 C250.32,45.68 250.32,45.68 245,44 C250.32,42.32 250.32,42.32 252,37 Z"/>
    <path d="M48,65.5 C49.56,70.44 49.56,70.44 54.5,72 C49.56,73.56 49.56,73.56 48,78.5 C46.44,73.56 46.44,73.56 41.5,72 C46.44,70.44 46.44,70.44 48,65.5 Z"/>
    <path d="M276,122.5 C277.32,126.68 277.32,126.68 281.5,128 C277.32,129.32 277.32,129.32 276,133.5 C274.68,129.32 274.68,129.32 270.5,128 C274.68,126.68 274.68,126.68 276,122.5 Z"/>
    <path d="M112,11 C113.2,14.8 113.2,14.8 117,16 C113.2,17.2 113.2,17.2 112,21 C110.8,17.2 110.8,17.2 107,16 C110.8,14.8 110.8,14.8 112,11 Z"/>
    <path d="M196,176 C197.44,180.56 197.44,180.56 202,182 C197.44,183.44 197.44,183.44 196,188 C194.56,183.44 194.56,183.44 190,182 C194.56,180.56 194.56,180.56 196,176 Z"/>
    <path d="M30,138 C30.96,141.04 30.96,141.04 34,142 C30.96,142.96 30.96,142.96 30,146 C29.04,142.96 29.04,142.96 26,142 C29.04,141.04 29.04,141.04 30,138 Z"/>
  </g>
  </g>
</svg>
